<svg width="332" height="119" viewBox="0 0 332 119" fill="none" xmlns="http://www.w3.org/2000/svg">
<path fill-rule="evenodd" clip-rule="evenodd" d="M113.953 116.435C199.578 107.846 288.979 126.087 318.558 95.9573C322.943 91.4952 326.576 86.0876 329.628 79.6814C335.567 67.2301 324.873 59.7189 317.357 54.0245C294.828 36.9624 247.528 39.8415 227.687 62.035C220.518 62.035 238.764 14.7105 188.824 19.6666C150.301 23.4965 151.723 52.8559 151.723 52.6806C151.723 35.4007 155.732 3.58724 121.152 0.192884C87.3367 -3.1271 70.9429 37.2652 70.9429 55.5809C70.9429 96.9081 69.2163 48.7285 31.1355 56.6646C-4.51377 64.096 -40.8919 131.967 113.959 116.435H113.953Z" fill="#98E0FF"/>
</svg>
