<svg width="230" height="83" viewBox="0 0 230 83" fill="none" xmlns="http://www.w3.org/2000/svg">
<path fill-rule="evenodd" clip-rule="evenodd" d="M78.9675 80.6877C138.304 74.7354 200.258 87.3764 220.756 66.497C223.795 63.4049 226.312 59.6575 228.428 55.218C232.543 46.5895 225.132 41.3844 219.924 37.4382C204.311 25.6144 171.534 27.6096 157.784 42.9893C152.816 42.9893 165.46 10.1942 130.852 13.6287C104.156 16.2828 105.142 36.6283 105.142 36.5069C105.142 24.5322 107.92 2.48591 83.9564 0.133666C60.523 -2.16704 49.1624 25.8242 49.1624 38.5168C49.1624 67.1559 47.9659 33.7681 21.5764 39.2677C-3.12798 44.4176 -28.3375 91.4514 78.9717 80.6877H78.9675Z" fill="#98E0FF"/>
</svg>
