<svg width="332" height="119" viewBox="0 0 332 119" fill="none" xmlns="http://www.w3.org/2000/svg">
<path fill-rule="evenodd" clip-rule="evenodd" d="M113.953 116.48C199.578 107.891 288.979 126.132 318.558 96.0027C322.943 91.5406 326.576 86.133 329.628 79.7268C335.567 67.2755 324.873 59.7644 317.357 54.0699C294.828 37.0078 247.528 39.8869 227.687 62.0804C220.518 62.0804 238.764 14.7559 188.824 19.712C150.301 23.542 151.723 52.9013 151.723 52.726C151.723 35.4461 155.732 3.63265 121.152 0.238294C87.3367 -3.08169 70.9429 37.3106 70.9429 55.6263C70.9429 96.9535 69.2163 48.7739 31.1355 56.71C-4.51377 64.1414 -40.8919 132.013 113.959 116.48H113.953Z" fill="#98E0FF"/>
</svg>
