<svg width="250" height="53" viewBox="0 0 250 53" fill="none" xmlns="http://www.w3.org/2000/svg">
<path fill-rule="evenodd" clip-rule="evenodd" d="M10.4932 1.33223C18.2393 1.11521 16.6031 4.98532 18.8249 9.47634C20.8656 13.6117 24.7899 14.7751 29.8252 13.3525C31.4311 12.8943 32.9828 12.2915 34.3835 11.2607C35.7902 10.2359 36.8709 9.11464 37.6075 7.93914C38.3561 6.76364 40.1251 3.46621 42.9446 1.9893C45.3113 1.10918 47.841 0.813802 50.5035 1.10918C53.16 1.41059 55.2007 1.99533 56.6074 2.86942C58.0202 3.7616 58.8353 5.26865 59.0526 7.40866C59.282 9.54867 58.6783 11.749 57.2776 14.0337C55.8648 16.3244 50.1232 18.0424 48.0403 19.2179C45.9694 20.3934 44.3332 21.5749 43.1499 22.7505C41.9665 23.926 41.2904 25.1557 41.1515 26.4096C41.0006 27.6695 41.3809 28.9957 42.2684 30.4002C43.162 31.7807 44.5264 32.9683 46.3799 33.9267C48.2214 34.8852 53.8 35.7714 55.0498 36.5792C56.3116 37.393 57.2776 38.4178 57.9478 39.6777C58.6059 40.9255 58.95 42.3904 58.95 44.0783C58.95 45.7661 58.3885 47.02 57.2776 47.8278C52.8401 51.083 44.3574 49.9497 39.1652 49.9497C36.3517 49.6423 34.4137 49.0455 33.3813 48.1714C32.3428 47.2973 31.4191 42.3904 30.598 41.3475C29.789 40.3227 28.8592 39.4727 27.8268 38.8036C26.7883 38.1465 25.8223 37.8391 24.9469 37.9234C22.9304 38.0922 19.6943 39.4064 19.489 41.468C18.6558 49.7689 17.0619 49.9497 7.61329 49.9497C2.12522 49.6423 3.51384 46.0917 2.72896 37.5798C2.735 24.8483 -4.81185 4.02684 10.4932 1.33223Z" fill="url(#paint0_linear_774_884)"/>
<path d="M10.4931 1.33221C18.2392 1.10917 16.6091 4.98531 18.8309 9.47632C20.8716 13.6117 24.7959 14.7751 29.8252 13.3525C31.4311 12.8943 32.9828 12.2915 34.3895 11.2546C35.7962 10.2298 36.8709 9.11463 37.6135 7.9331C38.3622 6.7576 40.1311 3.46017 42.9446 1.98326C45.3113 1.10314 47.841 0.80776 50.5035 1.10314C53.16 1.40455 55.2007 1.98929 56.6074 2.86941C58.0202 3.76158 58.8353 5.2626 59.0526 7.40262C59.282 9.54866 58.6843 11.749 57.2776 14.0276C55.8648 16.3123 50.1292 18.0364 48.0402 19.2119C45.9694 20.3874 44.3332 21.5689 43.1499 22.7444C41.9665 23.9199 41.2964 25.1497 41.1515 26.4035C41.0005 27.6574 41.3809 28.9896 42.2684 30.3882C43.1559 31.7686 44.5264 32.9562 46.3739 33.9207C48.2153 34.8792 53.794 35.7653 55.0498 36.5731C56.3116 37.3869 57.2776 38.4177 57.9478 39.6716C58.6058 40.9194 58.95 42.3843 58.95 44.0722C58.95 45.7601 58.3885 47.014 57.2836 47.8278C52.8521 51.083 44.3634 49.9497 39.1772 49.9497C36.3577 49.6423 34.4257 49.0455 33.3933 48.1714C32.3549 47.2973 31.4311 42.3903 30.61 41.3475C29.801 40.3227 28.8712 39.4727 27.8388 38.8036C26.8004 38.1465 25.8344 37.839 24.959 37.9234C22.9424 38.0922 19.7063 39.4064 19.5011 41.468C18.6619 49.7689 17.074 49.9497 7.62535 49.9497C2.13727 49.6423 3.5259 46.0856 2.73499 37.5738C2.72895 24.8483 -4.81187 4.02682 10.4931 1.33221Z" stroke="white" stroke-width="2.89" stroke-linecap="round" stroke-linejoin="round"/>
<path fill-rule="evenodd" clip-rule="evenodd" d="M94.9575 14.2869C97.62 13.4067 99.7331 11.9057 101.297 9.75967C102.842 7.62569 102.842 3.92437 105.282 2.61022C107.727 1.29607 110.136 0.856008 112.508 1.29607C116.336 2.00137 121.879 4.41265 122.06 10.7483C122.488 24.8483 110.365 42.5049 101.055 49.0274C94.6556 53.5124 82.9912 51.9632 81.7113 43.9758C81.0471 39.8344 90.2603 39.5149 92.4157 33.7519C93.1885 31.6903 92.458 29.9964 88.4068 28.5737C86.6439 27.9588 84.7843 27.0003 82.4116 26.2649C73.6331 23.5462 59.8677 18.6754 65.6033 5.2566C67.0583 1.85669 71.9969 1.48897 75.1606 1.4106C79.9483 1.27798 84.3315 5.99204 87.1571 9.33167C88.3464 10.7242 89.3547 11.7912 90.1698 12.5146C90.9788 13.244 92.5848 13.8287 94.9454 14.2808L94.9575 14.2869Z" fill="url(#paint1_linear_774_884)"/>
<path d="M94.9575 14.2929C97.62 13.4128 99.7331 11.9117 101.297 9.7657C102.842 7.63171 102.842 3.9304 105.276 2.61625C107.727 1.30812 110.13 0.868066 112.502 1.30812C116.33 2.01343 121.873 4.42471 122.054 10.7604C122.482 24.8543 110.353 42.517 101.049 49.0395C94.6496 53.5245 82.9852 51.9752 81.7052 43.9878C81.0471 39.8465 90.2543 39.527 92.4157 33.77C93.1885 31.7084 92.458 30.0145 88.4068 28.5918C86.6499 27.9769 84.7904 27.0184 82.4176 26.277C73.6391 23.5582 59.8737 18.6935 65.6093 5.26866C67.0583 1.86875 72.003 1.50103 75.1666 1.42266C79.9544 1.29607 84.3376 6.0041 87.1631 9.34373C88.3465 10.7362 89.3608 11.8032 90.1698 12.5266C90.9788 13.2621 92.5848 13.8408 94.9515 14.2929H94.9575Z" stroke="white" stroke-width="2.89" stroke-linecap="round" stroke-linejoin="round"/>
<path fill-rule="evenodd" clip-rule="evenodd" d="M161.014 1.07301C155.212 0.669123 126.515 -0.259222 132.076 11.544C136.061 16.5173 148.969 9.47031 152.778 9.90434C154.71 10.1214 156.087 10.8267 156.89 12.0263C157.705 13.2199 158.001 14.4797 157.778 15.818C157.56 17.1382 156.413 18.3318 154.336 19.3867C150.551 21.2916 141.911 17.8917 140.541 21.4725C136.64 31.6782 144.978 30.4364 152.036 30.34C160.573 30.2254 158.146 42.4808 148.142 42.1432C142.026 41.9443 130.73 34.1799 128.278 43.6804C127.735 45.7963 128.381 49.7206 132.734 49.9497C147.103 50.7093 159.462 51.3603 173.831 49.9497C180.557 49.0033 184.946 47.4179 186.274 42.3602C187.579 33.2878 182.133 30.7258 174.483 25.3908C177.49 23.504 183.075 24.1249 184.167 18.3921C186.727 4.84667 173.753 1.95916 161.014 1.07904V1.07301Z" fill="url(#paint2_linear_774_884)"/>
<path d="M161.014 1.07301C155.212 0.669123 126.509 -0.259222 132.076 11.544C136.061 16.5173 148.969 9.46428 152.778 9.90434C154.71 10.1274 156.087 10.8327 156.89 12.0263C157.705 13.2259 158.001 14.4858 157.778 15.818C157.56 17.1382 156.407 18.3318 154.33 19.3867C150.545 21.2916 141.905 17.8917 140.541 21.4725C136.64 31.6843 144.984 30.4364 152.036 30.34C160.573 30.2254 158.152 42.4808 148.142 42.1432C142.026 41.9382 130.724 34.1799 128.278 43.6804C127.735 45.7963 128.381 49.7146 132.734 49.9497C147.103 50.7093 159.462 51.3603 173.831 49.9497C180.557 49.0033 184.94 47.4179 186.274 42.3602C187.579 33.2878 182.133 30.7258 174.477 25.3908C177.484 23.504 183.075 24.1249 184.161 18.3921C186.715 4.84667 173.741 1.95916 161.002 1.07904L161.014 1.07301Z" stroke="white" stroke-width="2.89" stroke-linecap="round" stroke-linejoin="round"/>
<path fill-rule="evenodd" clip-rule="evenodd" d="M237.581 1.27194H209.802C206.397 1.44073 203.252 2.18823 200.36 3.50238C197.474 4.82858 195.548 6.25727 194.582 7.80049C193.622 9.34371 192.608 11.1944 192.463 13.5092C191.871 23.3352 195.554 28.7967 203.596 31.0995C207.563 32.2268 212.61 33.0225 206.264 38.1344C204.429 39.6174 196.387 39.5691 195.137 43.0956C189.082 60.0289 225.337 50.0462 227.915 38.478C229.303 32.2449 234.731 35.1806 232.805 39.1472C231.96 40.8893 230.746 48.2859 234.248 49.9075C238.583 50.9444 243.033 50.9444 246.909 49.9075C248.4 49.7628 249.137 48.8767 249.137 47.2551V13.1716C247.959 5.40729 245.442 1.44073 237.587 1.27797L237.581 1.27194ZM226.279 20.8214C225.391 23.4497 223.314 23.5703 222.046 23.5703C219.426 23.5703 211.058 21.1349 216.16 15.1187C218.883 11.9057 228.096 11.532 226.273 20.8214H226.279Z" fill="url(#paint3_linear_774_884)"/>
<path d="M237.581 1.27798H209.802C206.397 1.44075 203.252 2.18824 200.36 3.50842C197.48 4.8286 195.548 6.26331 194.582 7.80653C193.622 9.34373 192.608 11.2004 192.463 13.5152C191.871 23.3412 195.56 28.7968 203.59 31.1056C207.557 32.2328 212.604 33.0286 206.258 38.1405C204.429 39.6234 196.381 39.5752 195.131 43.0957C189.076 60.0289 225.331 50.0462 227.909 38.4781C229.291 32.2449 234.725 35.1806 232.799 39.1472C231.948 40.8893 230.734 48.2859 234.242 49.9136C238.577 50.9504 243.027 50.9504 246.903 49.9136C248.388 49.7629 249.131 48.8827 249.131 47.2612V13.1716C247.947 5.40731 245.436 1.44075 237.581 1.27798ZM226.279 20.8275C225.391 23.4558 223.308 23.5763 222.046 23.5763C219.426 23.5763 211.052 21.1409 216.16 15.1308C218.883 11.9117 228.096 11.544 226.279 20.8275Z" stroke="white" stroke-width="2.89" stroke-linecap="round" stroke-linejoin="round"/>
<defs>
<linearGradient id="paint0_linear_774_884" x1="0.875457" y1="25.5656" x2="59.1009" y2="25.5656" gradientUnits="userSpaceOnUse">
<stop stop-color="#1E3346"/>
<stop offset="1" stop-color="#1B546E"/>
</linearGradient>
<linearGradient id="paint1_linear_774_884" x1="64.2569" y1="26.3312" x2="122.066" y2="26.3312" gradientUnits="userSpaceOnUse">
<stop stop-color="#D43E49"/>
<stop offset="1" stop-color="#E03A47"/>
</linearGradient>
<linearGradient id="paint2_linear_774_884" x1="128.115" y1="25.8248" x2="186.474" y2="25.8248" gradientUnits="userSpaceOnUse">
<stop stop-color="#2B6B12"/>
<stop offset="1" stop-color="#127A18"/>
</linearGradient>
<linearGradient id="paint3_linear_774_884" x1="192.402" y1="26.6989" x2="249.125" y2="26.6989" gradientUnits="userSpaceOnUse">
<stop stop-color="#FD9D43"/>
<stop offset="1" stop-color="#F88226"/>
</linearGradient>
</defs>
</svg>
