<svg width="396" height="140" viewBox="0 0 396 140" fill="none" xmlns="http://www.w3.org/2000/svg">
<path fill-rule="evenodd" clip-rule="evenodd" d="M20.7617 35.6942C37.0642 31.7236 35.6094 39.8133 42.6532 47.3077C49.1282 54.211 58.0497 54.6138 67.9805 49.6028C71.1456 47.9963 74.1203 46.1403 76.5526 43.5422C79.0008 40.9528 80.708 38.3303 81.6576 35.763C82.6329 33.1902 84.6669 26.1253 89.8739 22.0295C94.4317 19.2733 99.639 17.5509 105.435 16.8876C111.221 16.2385 115.85 16.4096 119.286 17.4206C122.744 18.463 125.254 20.946 126.828 24.9038C128.427 28.856 128.292 33.3053 126.511 38.2808C124.709 43.2733 113.435 49.1689 109.632 52.3548C105.855 55.5351 103.002 58.5271 101.105 61.2997C99.2087 64.0722 98.4152 66.7146 98.773 69.1558C99.1083 71.614 100.604 73.9538 103.215 76.2092C105.827 78.4161 109.336 80.0408 113.762 81.0066C118.163 81.9778 130.446 81.0948 133.514 82.0522C136.612 83.0154 139.192 84.5146 141.267 86.5956C143.311 88.6592 144.802 91.2785 145.679 94.4789C146.557 97.6793 146.019 100.315 144.085 102.357C136.374 110.568 117.808 112.316 106.805 114.702C100.683 115.412 96.2654 115.171 93.623 113.988C90.9678 112.808 86.4585 103.928 84.1762 102.328C81.9288 100.757 79.5164 99.5724 76.9806 98.778C74.4382 98.0093 72.2312 97.8702 70.4199 98.4325C66.2343 99.679 60.0598 103.658 60.6969 107.661C63.2479 123.783 59.9642 124.858 39.9407 129.199C28.1506 131.138 29.247 123.768 23.1574 107.989C16.5495 83.8468 -10.2712 47.8356 20.7617 35.6942Z" fill="url(#paint0_linear_774_907)"/>
<path d="M20.7616 35.6942C37.061 31.7121 35.6222 39.8106 42.666 47.305C49.141 54.2082 58.0625 54.6111 67.9805 49.6028C71.1456 47.9963 74.1203 46.1403 76.5623 43.528C79.0105 40.9386 80.708 38.3303 81.6673 35.7488C82.6425 33.176 84.6766 26.1111 89.8708 22.018C94.4286 19.2618 99.6359 17.5395 105.432 16.8762C111.218 16.2271 115.847 16.3981 119.286 17.4205C122.744 18.463 125.251 20.9346 126.825 24.8923C128.427 28.856 128.304 33.3025 126.508 38.2693C124.702 43.2504 113.444 49.1547 109.629 52.3433C105.851 55.5237 102.998 58.5157 101.102 61.2882C99.2056 64.0608 98.4249 66.7004 98.7699 69.1444C99.102 71.5912 100.601 73.9424 103.209 76.1863C105.808 78.396 109.33 80.018 113.746 80.9979C118.147 81.9692 130.43 81.0861 133.511 82.0407C136.609 83.004 139.192 84.5146 141.264 86.5841C143.307 88.6478 144.798 91.2671 145.676 94.4675C146.554 97.6678 146.016 100.303 144.098 102.354C136.399 110.562 117.821 112.314 106.831 114.697C100.696 115.409 96.291 115.165 93.6486 113.982C90.9934 112.802 86.4841 103.923 84.2017 102.323C81.9544 100.751 79.542 99.5668 77.0062 98.7725C74.4638 98.0037 72.2568 97.8647 70.4455 98.4269C66.2599 99.6735 60.0854 103.652 60.7225 107.655C63.2607 123.78 59.9898 124.852 39.9663 129.194C28.1762 131.133 29.2694 123.751 23.167 107.975C16.5367 83.8496 -10.2712 47.8356 20.7616 35.6942Z" stroke="white" stroke-width="2.89" stroke-linecap="round" stroke-linejoin="round"/>
<path fill-rule="evenodd" clip-rule="evenodd" d="M175.219 66.0929C180.445 64.5472 184.593 61.9111 187.662 58.1423C190.696 54.3946 190.696 47.8944 195.484 45.5865C200.283 43.2786 205.012 42.5057 209.669 43.2786C217.182 44.5172 228.061 48.7519 228.417 59.8785C229.258 84.6408 205.462 115.649 187.188 127.104C174.626 134.98 151.731 132.26 149.219 118.232C147.915 110.959 165.999 110.398 170.23 100.277C171.747 96.6567 170.313 93.6818 162.361 91.1833C158.901 90.1035 155.251 88.4202 150.593 87.1286C133.362 82.354 106.343 73.8 117.601 50.234C120.457 44.2631 130.151 43.6173 136.361 43.4797C145.758 43.2468 154.362 51.5256 159.908 57.3906C162.243 59.8361 164.222 61.71 165.821 62.9804C167.409 64.2614 170.562 65.2883 175.195 66.0823L175.219 66.0929Z" fill="url(#paint1_linear_774_907)"/>
<path d="M175.219 66.1036C180.445 64.5579 184.593 61.9218 187.662 58.153C190.696 54.4053 190.696 47.9051 195.472 45.5972C200.283 43.2998 205 42.527 209.657 43.2998C217.171 44.5385 228.05 48.7732 228.405 59.8998C229.246 84.6515 205.438 115.67 187.177 127.125C174.615 135.002 151.719 132.281 149.207 118.254C147.915 110.981 165.988 110.419 170.23 100.309C171.747 96.6885 170.313 93.7137 162.361 91.2152C158.913 90.1354 155.263 88.4521 150.605 87.1499C133.375 82.3753 106.355 73.8319 117.613 50.2553C120.457 44.2844 130.163 43.6386 136.373 43.501C145.77 43.2787 154.374 51.5469 159.92 57.4119C162.243 59.8574 164.234 61.7313 165.822 63.0017C167.41 64.2933 170.562 65.3096 175.207 66.1036H175.219Z" stroke="white" stroke-width="2.89" stroke-linecap="round" stroke-linejoin="round"/>
<path fill-rule="evenodd" clip-rule="evenodd" d="M268.314 56.7752C257.659 56.1116 204.963 54.5863 215.174 73.979C222.492 82.15 246.195 70.5719 253.191 71.285C256.739 71.6416 259.267 72.8004 260.741 74.7713C262.238 76.7324 262.781 78.8024 262.371 81.0011C261.972 83.1702 259.865 85.1312 256.052 86.8645C249.1 89.9943 233.235 84.4082 230.718 90.2914C223.556 107.059 238.867 105.019 251.827 104.861C267.504 104.672 263.047 124.808 244.676 124.253C233.445 123.926 212.702 111.17 208.201 126.779C207.203 130.255 208.389 136.703 216.383 137.079C242.77 138.327 265.464 139.397 291.851 137.079C304.202 135.524 312.262 132.92 314.701 124.61C317.096 109.704 307.095 105.495 293.048 96.7292C298.57 93.6292 308.825 94.6493 310.832 85.2303C315.532 62.9753 291.707 58.2311 268.314 56.7851V56.7752Z" fill="url(#paint2_linear_774_907)"/>
<path d="M268.314 56.7752C257.659 56.1116 204.952 54.5863 215.174 73.979C222.492 82.15 246.195 70.562 253.191 71.285C256.739 71.6515 259.267 72.8103 260.741 74.7713C262.238 76.7423 262.781 78.8123 262.371 81.0011C261.972 83.1702 259.854 85.1312 256.04 86.8645C249.089 89.9943 233.224 84.4082 230.718 90.2914C223.556 107.069 238.878 105.019 251.827 104.861C267.504 104.672 263.058 124.808 244.676 124.253C233.445 123.917 212.691 111.17 208.201 126.779C207.203 130.255 208.389 136.693 216.383 137.079C242.77 138.327 265.464 139.397 291.851 137.079C304.202 135.524 312.251 132.92 314.701 124.61C317.096 109.704 307.095 105.495 293.037 96.7292C298.558 93.6292 308.825 94.6493 310.82 85.2303C315.51 62.9753 291.685 58.2311 268.291 56.7851L268.314 56.7752Z" stroke="white" stroke-width="2.89" stroke-linecap="round" stroke-linejoin="round"/>
<path fill-rule="evenodd" clip-rule="evenodd" d="M374.347 23.336L323.37 11.1913C317.038 9.97969 310.895 9.83178 304.938 10.7251C298.986 11.6409 294.745 13.1447 292.208 15.2562C289.683 17.3703 286.906 19.9655 285.495 23.7029C279.547 39.5776 283.603 50.1551 297.221 57.452C303.943 61.037 312.811 64.5502 298.637 70.1694C294.536 71.8018 279.801 68.2067 275.763 73.4505C256.272 98.6058 327.744 98.0658 338.199 80.1991C343.831 70.5719 352.339 77.7651 346.842 83.4358C344.429 85.9267 338.542 97.5407 344.165 101.734C351.607 105.332 359.773 107.277 367.399 107.269C370.207 107.684 371.998 106.551 372.8 103.888L389.665 47.9263C391.346 34.6633 388.689 27.0498 374.355 23.3485L374.347 23.336ZM343.933 50.4932C341.003 54.4206 337.132 53.7105 334.806 53.1562C329.997 52.0106 315.846 44.3535 328.185 36.7059C334.772 32.6209 351.864 36.0352 343.922 50.4905L343.933 50.4932Z" fill="url(#paint3_linear_774_907)"/>
<path d="M374.344 23.3459L323.367 11.2012C317.037 9.9797 310.895 9.8318 304.935 10.7351C298.997 11.6436 294.741 13.1546 292.205 15.2661C289.683 17.3703 286.903 19.9754 285.491 23.7128C279.544 39.5875 283.614 50.1577 297.207 57.4592C303.928 61.0443 312.797 64.5575 298.623 70.1766C294.532 71.8117 279.787 68.2139 275.752 73.4479C256.26 98.6032 327.732 98.0632 338.187 80.1964C343.809 70.5666 352.328 77.7624 346.831 83.4332C344.406 85.9214 338.519 97.5354 344.151 101.741C351.593 105.339 359.759 107.284 367.385 107.277C370.185 107.679 371.983 106.558 372.786 103.896L389.654 47.9237C391.324 34.658 388.677 27.0472 374.344 23.3459ZM343.929 50.5031C341 54.4305 337.118 53.7178 334.803 53.1661C329.994 52.0205 315.832 44.3607 328.179 36.7257C334.769 32.6308 351.858 36.055 343.929 50.5031Z" stroke="white" stroke-width="2.89" stroke-linecap="round" stroke-linejoin="round"/>
<defs>
<linearGradient id="paint0_linear_774_907" x1="12.9818" y1="86.0614" x2="134.564" y2="52.7159" gradientUnits="userSpaceOnUse">
<stop stop-color="#1E3346"/>
<stop offset="1" stop-color="#1B546E"/>
</linearGradient>
<linearGradient id="paint1_linear_774_907" x1="114.958" y1="87.2451" x2="228.429" y2="87.2451" gradientUnits="userSpaceOnUse">
<stop stop-color="#D43E49"/>
<stop offset="1" stop-color="#E03A47"/>
</linearGradient>
<linearGradient id="paint2_linear_774_907" x1="207.901" y1="97.4423" x2="315.067" y2="97.4423" gradientUnits="userSpaceOnUse">
<stop stop-color="#2B6B12"/>
<stop offset="1" stop-color="#127A18"/>
</linearGradient>
<linearGradient id="paint3_linear_774_907" x1="278.857" y1="45.3328" x2="381.134" y2="76.1552" gradientUnits="userSpaceOnUse">
<stop stop-color="#FD9D43"/>
<stop offset="1" stop-color="#F88226"/>
</linearGradient>
</defs>
</svg>
