<svg width="70" height="70" viewBox="0 0 70 70" fill="none" xmlns="http://www.w3.org/2000/svg">
<g clip-path="url(#clip0_774_329)">
<path d="M55.4463 39.184L26.1465 47.0348C22.4123 48.0354 20.1962 51.8738 21.1968 55.6081M55.4463 39.184L57.258 45.9455C58.2586 49.6797 56.0425 53.5181 52.3083 54.5187L29.77 60.5578C26.0357 61.5584 22.1974 59.3423 21.1968 55.6081M55.4463 39.184L48.8033 14.3919C47.8027 10.6576 43.9643 8.44156 40.23 9.44215L17.6918 15.4813C13.9575 16.4819 11.7414 20.3202 12.742 24.0545L21.1968 55.6081M22.1994 14.2734L26.4268 30.0502L31.8597 23.2801L39.9498 26.4268L35.7224 10.65" stroke="white" stroke-width="3" stroke-linecap="round" stroke-linejoin="round"/>
</g>
<defs>
<clipPath id="clip0_774_329">
<rect width="56" height="56" fill="white" transform="translate(0.707153 15.201) rotate(-15)"/>
</clipPath>
</defs>
</svg>
