<svg width="70" height="70" viewBox="0 0 70 70" fill="none" xmlns="http://www.w3.org/2000/svg">
<path d="M56.7177 39.1009C55.1856 41.7545 53.1459 44.0804 50.7149 45.9458C48.2839 47.8111 45.5093 49.1794 42.5496 49.9725M42.5496 49.9725C39.5898 50.7655 36.5028 50.9679 33.4649 50.5679C30.4269 50.168 27.4975 49.1735 24.8438 47.6415C22.1901 46.1094 19.8642 44.0696 17.9989 41.6386C16.1335 39.2077 14.7653 36.4331 13.9722 33.4733C13.1791 30.5135 12.9768 27.4265 13.3768 24.3886C13.7767 21.3506 14.7711 18.4212 16.3032 15.7675M42.5496 49.9725L44.3618 56.7338M44.3618 56.7338L37.6003 58.5455M44.3618 56.7338L51.1233 54.9221M52.2878 23.2067C54.6225 31.92 49.4516 40.8762 40.7384 43.2109C32.0251 45.5456 23.0689 40.3747 20.7342 31.6615C18.3995 22.9482 23.5703 13.992 32.2836 11.6573C40.9969 9.32258 49.953 14.4934 52.2878 23.2067Z" stroke="white" stroke-width="3" stroke-linecap="round"/>
</svg>
