<svg width="40" height="40" viewBox="0 0 40 40" fill="none" xmlns="http://www.w3.org/2000/svg">
<g clip-path="url(#clip0_774_409)">
<path d="M14.0579 31.7619L14.5025 30.8662L14.0579 31.7619ZM26.6408 31.3849L26.1427 30.5177L26.6408 31.3849ZM21.2309 13.9411C21.6598 12.3407 20.71 10.6957 19.1096 10.2669L18.592 12.1988C19.1254 12.3417 19.442 12.89 19.2991 13.4235L21.2309 13.9411ZM19.1096 10.2669C17.5092 9.83809 15.8642 10.7878 15.4354 12.3882L17.3672 12.9059C17.5102 12.3724 18.0585 12.0558 18.592 12.1988L19.1096 10.2669ZM15.4354 12.3882C15.0065 13.9886 15.9563 15.6336 17.5567 16.0625L18.0743 14.1306C17.5409 13.9877 17.2243 13.4393 17.3672 12.9059L15.4354 12.3882ZM17.5567 16.0625C19.1571 16.4913 20.8021 15.5415 21.2309 13.9411L19.2991 13.4235C19.1561 13.957 18.6078 14.2736 18.0743 14.1306L17.5567 16.0625ZM30.0275 19.7491C30.4563 18.1487 29.5065 16.5037 27.9061 16.0749L27.3885 18.0067C27.922 18.1496 28.2385 18.698 28.0956 19.2315L30.0275 19.7491ZM27.9061 16.0749C26.3057 15.646 24.6607 16.5958 24.2319 18.1962L26.1638 18.7138C26.3067 18.1803 26.855 17.8638 27.3885 18.0067L27.9061 16.0749ZM24.2319 18.1962C23.8031 19.7966 24.7528 21.4416 26.3532 21.8704L26.8709 19.9386C26.3374 19.7956 26.0208 19.2473 26.1638 18.7138L24.2319 18.1962ZM26.3532 21.8704C27.9536 22.2992 29.5986 21.3495 30.0275 19.7491L28.0956 19.2315C27.9527 19.7649 27.4043 20.0815 26.8709 19.9386L26.3532 21.8704ZM16.5383 23.7267C16.9672 22.1263 16.0174 20.4813 14.417 20.0525L13.8994 21.9843C14.4328 22.1273 14.7494 22.6756 14.6065 23.2091L16.5383 23.7267ZM14.417 20.0525C12.8166 19.6237 11.1716 20.5734 10.7428 22.1738L12.6746 22.6914C12.8176 22.158 13.3659 21.8414 13.8994 21.9843L14.417 20.0525ZM10.7428 22.1738C10.314 23.7742 11.2637 25.4192 12.8641 25.848L13.3817 23.9162C12.8483 23.7732 12.5317 23.2249 12.6746 22.6914L10.7428 22.1738ZM12.8641 25.848C14.4645 26.2769 16.1095 25.3271 16.5383 23.7267L14.6065 23.2091C14.4635 23.7425 13.9152 24.0591 13.3817 23.9162L12.8641 25.848ZM14.5025 30.8662C9.35178 28.3094 6.54145 22.3986 8.0869 16.6309L6.15505 16.1132C4.35834 22.8187 7.62642 29.6858 13.6132 32.6576L14.5025 30.8662ZM8.0869 16.6309C9.84985 10.0515 16.6127 6.14694 23.1921 7.90989L23.7097 5.97804C16.0634 3.9292 8.20389 8.46689 6.15505 16.1132L8.0869 16.6309ZM23.1921 7.90989C29.7715 9.67284 33.676 16.4357 31.9131 23.0151L33.8449 23.5327C35.8938 15.8864 31.3561 8.02687 23.7097 5.97804L23.1921 7.90989ZM21.8363 24.4178C22.8835 24.6984 23.5049 25.7747 23.2243 26.8219L25.1562 27.3395C25.7227 25.2254 24.468 23.0524 22.3539 22.4859L21.8363 24.4178ZM19.4322 25.8058C19.7128 24.7586 20.7891 24.1372 21.8363 24.4178L22.3539 22.4859C20.2398 21.9195 18.0668 23.1741 17.5003 25.2882L19.4322 25.8058ZM23.2243 26.8219L22.7796 28.4818L24.7114 28.9994L25.1562 27.3395L23.2243 26.8219ZM31.9131 23.0151C31.029 26.3146 28.8891 28.9403 26.1427 30.5177L27.1388 32.252C30.3276 30.4204 32.8176 27.3668 33.8449 23.5327L31.9131 23.0151ZM17.5003 25.2882L16.2733 29.8674L18.2052 30.385L19.4322 25.8058L17.5003 25.2882ZM22.7796 28.4818C22.4316 29.7803 22.8211 31.0684 23.6681 31.8741C24.546 32.7091 25.8781 32.9762 27.1388 32.252L26.1427 30.5177C25.687 30.7795 25.3152 30.6805 25.0465 30.4249C24.7469 30.14 24.547 29.613 24.7114 28.9994L22.7796 28.4818ZM13.6132 32.6576C15.624 33.6557 17.699 32.2743 18.2052 30.385L16.2733 29.8674C16.0172 30.8233 15.1301 31.1777 14.5025 30.8662L13.6132 32.6576Z" fill="#007ABD"/>
</g>
<defs>
<clipPath id="clip0_774_409">
<rect width="32" height="32" fill="white" transform="translate(8.68628 0.227051) rotate(15)"/>
</clipPath>
</defs>
</svg>
