<svg width="80" height="80" viewBox="0 0 80 80" fill="none" xmlns="http://www.w3.org/2000/svg">
<g clip-path="url(#clip0_774_326)">
<path d="M51.1474 54.4472L50.0868 53.3866C49.501 53.9724 49.501 54.9221 50.0868 55.5079L51.1474 54.4472ZM24.7488 28.0486L23.6881 29.1093C24.2739 29.695 25.2236 29.695 25.8094 29.1093L24.7488 28.0486ZM42.8978 46.1977L41.8372 47.2583L42.8978 48.319L43.9585 47.2583L42.8978 46.1977ZM32.9983 36.2982L31.9377 35.2375L30.877 36.2982L31.9377 37.3588L32.9983 36.2982ZM17.0884 40.1873C16.5027 40.773 16.5027 41.7228 17.0884 42.3086C17.6742 42.8944 18.624 42.8944 19.2098 42.3086L17.0884 40.1873ZM22.5096 39.0087C23.0954 38.423 23.0954 37.4732 22.5096 36.8874C21.9238 36.3016 20.9741 36.3016 20.3883 36.8874L22.5096 39.0087ZM23.6881 46.7869C23.1023 47.3727 23.1023 48.3225 23.6881 48.9082C24.2739 49.494 25.2236 49.494 25.8094 48.9082L23.6881 46.7869ZM29.1093 45.6084C29.695 45.0226 29.695 44.0729 29.1093 43.4871C28.5235 42.9013 27.5737 42.9013 26.9879 43.4871L29.1093 45.6084ZM30.2878 53.3866C29.702 53.9724 29.702 54.9221 30.2878 55.5079C30.8736 56.0937 31.8233 56.0937 32.4091 55.5079L30.2878 53.3866ZM35.7089 52.2081C36.2947 51.6223 36.2947 50.6725 35.7089 50.0868C35.1231 49.501 34.1734 49.501 33.5876 50.0868L35.7089 52.2081ZM36.8874 59.9862C36.3016 60.572 36.3016 61.5218 36.8874 62.1076C37.4732 62.6934 38.423 62.6934 39.0088 62.1076L36.8874 59.9862ZM42.3086 58.8077C42.8944 58.2219 42.8944 57.2722 42.3086 56.6864C41.7228 56.1006 40.773 56.1006 40.1873 56.6864L42.3086 58.8077ZM15.9099 32.4091L19.2098 29.1093L17.0884 26.9879L13.7886 30.2878L15.9099 32.4091ZM50.0868 59.9862L46.7869 63.2861L48.9082 65.4074L52.2081 62.1076L50.0868 59.9862ZM42.3086 63.2861L15.9099 36.8874L13.7886 39.0087L40.1873 65.4074L42.3086 63.2861ZM46.7869 63.2861C45.5503 64.5227 43.5452 64.5227 42.3086 63.2861L40.1873 65.4074C42.5955 67.8156 46.5 67.8156 48.9082 65.4074L46.7869 63.2861ZM50.0868 55.5079C51.3234 56.7446 51.3234 58.7496 50.0868 59.9862L52.2081 62.1076C54.6163 59.6993 54.6163 55.7948 52.2081 53.3866L50.0868 55.5079ZM19.2098 29.1093C20.4464 27.8726 22.4514 27.8726 23.6881 29.1093L25.8094 26.9879C23.4012 24.5797 19.4967 24.5797 17.0884 26.9879L19.2098 29.1093ZM13.7886 30.2878C11.3804 32.696 11.3804 36.6005 13.7886 39.0087L15.9099 36.8874C14.6733 35.6508 14.6733 33.6457 15.9099 32.4091L13.7886 30.2878ZM50.0868 29.1093C56.7908 35.8133 56.7908 46.6826 50.0868 53.3866L52.2081 55.5079C60.0836 47.6323 60.0836 34.8635 52.2081 26.9879L50.0868 29.1093ZM25.8094 29.1093C32.5134 22.4053 43.3828 22.4053 50.0868 29.1093L52.2081 26.9879C44.3325 19.1124 31.5637 19.1124 23.6881 26.9879L25.8094 29.1093ZM41.8372 37.3588C43.9851 39.5067 43.9851 42.9891 41.8372 45.137L43.9585 47.2583C47.278 43.9389 47.278 38.557 43.9585 35.2375L41.8372 37.3588ZM34.059 37.3588C36.2069 35.2109 39.6893 35.2109 41.8372 37.3588L43.9585 35.2375C40.639 31.9181 35.2571 31.9181 31.9377 35.2375L34.059 37.3588ZM31.9377 37.3588L41.8372 47.2583L43.9585 45.137L34.059 35.2375L31.9377 37.3588ZM19.2098 42.3086L22.5096 39.0087L20.3883 36.8874L17.0884 40.1873L19.2098 42.3086ZM25.8094 48.9082L29.1093 45.6084L26.9879 43.4871L23.6881 46.7869L25.8094 48.9082ZM32.4091 55.5079L35.7089 52.2081L33.5876 50.0868L30.2878 53.3866L32.4091 55.5079ZM39.0088 62.1076L42.3086 58.8077L40.1873 56.6864L36.8874 59.9862L39.0088 62.1076Z" fill="white"/>
</g>
<defs>
<clipPath id="clip0_774_326">
<rect width="56" height="56" fill="white" transform="translate(0 39.598) rotate(-45)"/>
</clipPath>
</defs>
</svg>
