<svg width="33" height="33" viewBox="0 0 33 33" fill="none" xmlns="http://www.w3.org/2000/svg">
<path d="M3.26257 19.4621L4.28707 21.2935M4.28707 21.2935L5.31158 23.1249M4.28707 21.2935L10.202 17.769M25.679 29.7522L18.849 17.769L12.019 29.7522M22.349 5.6475L10.5191 12.6965C9.21242 13.4751 8.76471 15.1995 9.51913 16.5481L10.8851 18.9899C11.6396 20.3385 13.3104 20.8006 14.6171 20.022L26.447 12.973L22.349 5.6475ZM28.9044 13.1366C27.9244 13.7205 26.6712 13.374 26.1054 12.3625L22.6904 6.25796C22.1246 5.24652 22.4604 3.95319 23.4404 3.36924C24.4204 2.78528 25.6736 3.13183 26.2394 4.14327L29.6544 10.2478C30.2202 11.2593 29.8844 12.5526 28.9044 13.1366Z" stroke="#539F5F" stroke-width="2" stroke-linecap="round" stroke-linejoin="round"/>
</svg>
