<svg xmlns="http://www.w3.org/2000/svg">

   <!-- phone -->
	<symbol id="phone" viewBox="0 0 22 22">
      <g>
         <path fill="transparent" d="M21.0001 15.92V18.92C21.0012 19.1985 20.9441 19.4742 20.8326 19.7293C20.721 19.9845 20.5574 20.2136 20.3521 20.4019C20.1469 20.5901 19.9046 20.7335 19.6408 20.8227C19.377 20.9119 19.0974 20.9451 18.8201 20.92C15.7429 20.5856 12.7871 19.5341 10.1901 17.85C7.77388 16.3147 5.72539 14.2662 4.19006 11.85C2.50003 9.24121 1.4483 6.271 1.12006 3.18C1.09507 2.90347 1.12793 2.62476 1.21656 2.36163C1.30518 2.09849 1.44763 1.85669 1.63482 1.65162C1.82202 1.44655 2.04986 1.28271 2.30385 1.17052C2.55783 1.05834 2.8324 1.00026 3.11006 1H6.11006C6.59536 0.995225 7.06585 1.16708 7.43382 1.48353C7.80179 1.79999 8.04213 2.23945 8.11005 2.72C8.23668 3.68007 8.47151 4.62273 8.81006 5.53C8.9446 5.88793 8.97372 6.27692 8.89396 6.65088C8.81421 7.02485 8.62892 7.36811 8.36005 7.64L7.09006 8.91C8.51361 11.4135 10.5865 13.4864 13.0901 14.91L14.3601 13.64C14.6319 13.3711 14.9752 13.1859 15.3492 13.1061C15.7231 13.0263 16.1121 13.0555 16.4701 13.19C17.3773 13.5286 18.32 13.7634 19.2801 13.89C19.7658 13.9585 20.2095 14.2032 20.5266 14.5775C20.8437 14.9518 21.0122 15.4296 21.0001 15.92Z" stroke-width="1.5" stroke-linecap="round" stroke-linejoin="round"/>
      </g>
   </symbol>

   <!-- button-arrow -->
	<symbol id="button-arrow" viewBox="0 0 37 12">
      <g>
         <path d="M36.5303 6.85333C36.8232 6.56043 36.8232 6.08556 36.5303 5.79267L31.7574 1.0197C31.4645 0.726804 30.9896 0.726804 30.6967 1.0197C30.4038 1.31259 30.4038 1.78746 30.6967 2.08036L34.9393 6.323L30.6967 10.5656C30.4038 10.8585 30.4038 11.3334 30.6967 11.6263C30.9896 11.9192 31.4645 11.9192 31.7574 11.6263L36.5303 6.85333ZM0 7.073H36V5.573H0V7.073Z"/>
      </g>
   </symbol>

   <!-- arrow-icon -->
	<symbol id="arrow-icon" viewBox="0 0 10 15">
      <g>
         <path fill="transparent" d="M9 14L2 7.5L9 1" stroke-width="1.5"/>
      </g>
   </symbol>

   <!-- telegram -->
	<symbol id="telegram" viewBox="0 0 21 24">
      <g>
         <path d="M20.9383 1.62171L17.7695 16.5655C17.5305 17.6201 16.907 17.8826 16.0211 17.3858L11.193 13.828L8.8633 16.0686C8.60548 16.3264 8.38986 16.542 7.89298 16.542L8.23986 11.6248L17.1883 3.5389C17.5774 3.19202 17.1039 2.99983 16.5836 3.34671L5.52111 10.3123L0.75861 8.82171C-0.277328 8.49827 -0.296078 7.78577 0.974234 7.2889L19.6024 0.112333C20.4649 -0.211105 21.2195 0.30452 20.9383 1.62171V1.62171Z" />
      </g>
   </symbol>

   <!-- viber -->
	<symbol id="viber" viewBox="0 0 24 24">
      <g>
         <path fill-rule="evenodd" clip-rule="evenodd" d="M12 -1.19209e-07C18.6274 -1.19209e-07 24 5.37258 24 12C24 18.6274 18.6274 24 12 24C5.37258 24 0 18.6274 0 12C0 5.37258 5.37258 -1.19209e-07 12 -1.19209e-07ZM12.7187 4.88807C13.5347 4.98991 14.194 5.18645 14.9175 5.53933C15.629 5.8875 16.0845 6.21668 16.6869 6.81586C17.2515 7.3819 17.5646 7.8106 17.8966 8.47609C18.3592 9.40449 18.6224 10.5081 18.6675 11.7231C18.6841 12.1375 18.6722 12.2299 18.5773 12.3483C18.3971 12.5781 18.001 12.5401 17.8658 12.282C17.8231 12.1967 17.8112 12.1234 17.797 11.7918C17.7733 11.2826 17.7377 10.9534 17.6666 10.5602C17.3867 9.01846 16.6466 7.7869 15.4654 6.9035C14.481 6.16459 13.4635 5.80459 12.1305 5.72644C11.6798 5.70039 11.6015 5.68384 11.4995 5.60568C11.3097 5.45646 11.3003 5.10597 11.4829 4.94255C11.5944 4.84069 11.6727 4.82648 12.0593 4.83832C12.2609 4.84542 12.5574 4.86912 12.7187 4.88807ZM7.29647 5.14386C7.37951 5.17226 7.50759 5.23857 7.58113 5.28594C8.03177 5.58437 9.28651 7.1877 9.69687 7.98822C9.93167 8.44529 10.01 8.78397 9.93646 9.03502C9.86051 9.30501 9.73485 9.44711 9.17268 9.89947C8.94734 10.0818 8.73621 10.2689 8.70303 10.3187C8.61763 10.4418 8.54883 10.6834 8.54883 10.8539C8.55124 11.2494 8.80741 11.967 9.14423 12.5189C9.40511 12.9475 9.87235 13.497 10.3349 13.9186C10.8781 14.4159 11.3572 14.7545 11.898 15.0222C12.593 15.368 13.0176 15.4556 13.3283 15.3111C13.4066 15.2756 13.4896 15.2282 13.5157 15.2069C13.5394 15.1856 13.722 14.963 13.9213 14.7167C14.3055 14.2335 14.3933 14.1554 14.6566 14.0654C14.991 13.9517 15.3326 13.9825 15.6765 14.1577C15.9374 14.2928 16.5067 14.6456 16.8743 14.9014C17.3582 15.2401 18.3923 16.0832 18.5323 16.2514C18.779 16.5545 18.8217 16.9429 18.6556 17.3716C18.4801 17.8239 17.797 18.6718 17.3202 19.0342C16.8885 19.361 16.5826 19.4865 16.1793 19.5055C15.8473 19.522 15.7097 19.4936 15.2851 19.3184C11.955 17.9471 9.29601 15.9009 7.18497 13.0896C6.08205 11.6213 5.24237 10.0984 4.66834 8.51874C4.33393 7.59747 4.31734 7.19718 4.59245 6.72589C4.71108 6.52696 5.21629 6.03434 5.58393 5.75962C6.19591 5.30489 6.47815 5.13673 6.70349 5.08937C6.85766 5.05621 7.12567 5.08227 7.29647 5.14386ZM12.8823 6.60509C14.3221 6.81586 15.4369 7.48377 16.1675 8.56846C16.5778 9.17949 16.834 9.89709 16.9218 10.6668C16.9526 10.9486 16.9526 11.4626 16.9194 11.5478C16.8885 11.6283 16.7889 11.7373 16.7035 11.7823C16.611 11.8296 16.4142 11.8249 16.3051 11.7681C16.1224 11.6757 16.0679 11.5289 16.0679 11.131C16.0679 10.5176 15.9089 9.87104 15.6338 9.36894C15.3207 8.79581 14.8653 8.32216 14.3103 7.99295C13.8335 7.70875 13.1291 7.49798 12.4863 7.44589C12.2538 7.42692 12.1257 7.37955 12.0379 7.27771C11.9028 7.12376 11.8885 6.91535 12.0024 6.74248C12.1257 6.55064 12.3154 6.51982 12.8823 6.60509ZM13.3876 8.39319C13.8548 8.49266 14.213 8.6703 14.519 8.95687C14.9127 9.32868 15.1286 9.77867 15.2234 10.4252C15.2875 10.8468 15.2614 11.0126 15.112 11.1499C14.972 11.2778 14.7135 11.2826 14.5569 11.1618C14.4431 11.0765 14.4075 10.9865 14.3814 10.7426C14.3506 10.4181 14.2937 10.1908 14.1964 9.97998C13.9877 9.53237 13.62 9.30027 12.9986 9.22449C12.7068 9.18895 12.6191 9.15581 12.5242 9.04451C12.3511 8.83846 12.4174 8.50452 12.657 8.38136C12.7472 8.33636 12.7851 8.33163 12.9843 8.34347C13.1077 8.35057 13.2904 8.37186 13.3876 8.39319Z" />
      </g>
   </symbol>

   <!--  -->
	<symbol id="" viewBox="">
      <g>
         
      </g>
   </symbol>

</svg>